PathFileType	4	(X/Y/Z)	/Users/niels/Desktop/University/Third Semester/Perception and Action/Exam/Gymnastics Motion Tracking/Code for Gym Tracking/Analyzed Data/Webcam_Backflip/id11_2_trajectory_Sports2D/id11_2_trajectory_Sports2D_px_person00.trc
DataRate	CameraRate	NumFrames	NumMarkers	Units	OrigDataRate	OrigDataStartFrame	OrigNumFrames
29.714285714285715	29.714285714285715	8	22	m	29.714285714285715	13	105
Frame#	Time	Hip			RHip			RKnee			RAnkle			RBigToe			RSmallToe			RHeel			LHip			LKnee			LAnkle			LBigToe			LSmallToe			LHeel			Neck			Head			Nose			RShoulder			RElbow			RWrist			LShoulder			LElbow			LWrist		
		X1	Y1	Z1	X2	Y2	Z2	X3	Y3	Z3	X4	Y4	Z4	X5	Y5	Z5	X6	Y6	Z6	X7	Y7	Z7	X8	Y8	Z8	X9	Y9	Z9	X10	Y10	Z10	X11	Y11	Z11	X12	Y12	Z12	X13	Y13	Z13	X14	Y14	Z14	X15	Y15	Z15	X16	Y16	Z16	X17	Y17	Z17	X18	Y18	Z18	X19	Y19	Z19	X20	Y20	Z20	X21	Y21	Z21	X22	Y22	Z22
13	0.4375	0.8749310763196779	-0.597467371988418	0.0	0.8769960139398281	-0.5955220943256136	0.0	0.9119743175296313	-0.799369685245922	0.0	0.8769251584255313	-0.9956702661747915	0.0	0.9680313308741929	-1.026638598649577	0.0	0.9518378142090769	-1.0341108565417587	0.0	0.8545124716178268	-1.0246070831580307	0.0	0.8818231197851483	-0.5944053727431741	0.0	0.9154240928200914	-0.7920863149991274	0.0	0.8911949356336055	-0.9738377632894654	0.0	0.979014220567208	-0.991654864992865	0.0	0.9653395073668927	-0.9891736411925709	0.0	0.8626953748415541	-0.9905728205374137	0.0	0.9509175398224947	-0.3270812590462116	0.0	1.0434092392626924	-0.22032408244719182	0.0	1.0293615970635708	-0.3137205838146134	0.0	0.9335124944765404	-0.36088685250816716	0.0	1.0038576675827455	-0.502072480743483	0.0	1.114321551310416	-0.5953093530154024	0.0	0.9180271904148071	-0.35533358388054137	0.0	0.9971738190195225	-0.4894857630339692	0.0	1.1092980265158607	-0.574368618481826	0.0
14	0.47115384615384615	0.8764356706148265	-0.5986380817480881	0.0	0.8796593536794317	-0.596300828235284	0.0	0.9149924650093983	-0.8003864532074906	0.0	0.8775294579468975	-0.9977949477081903	0.0	0.9677063181729825	-1.0282612642404942	0.0	0.9509939073321297	-1.0361486001688758	0.0	0.8546377899668475	-1.02638053513151	0.0	0.882028602255822	-0.5951942089442098	0.0	0.9182780729336788	-0.7931389117079368	0.0	0.8920953295677512	-0.9756000039065332	0.0	0.9793639421817627	-0.9944257714795057	0.0	0.9665779632279371	-0.9907228539871158	0.0	0.8641903738036258	-0.9938162788200199	0.0	0.9508399075932205	-0.327777896836239	0.0	1.041755192529784	-0.22087738897558112	0.0	1.0283563675368048	-0.3133157062734421	0.0	0.9341769820575947	-0.3616667770849798	0.0	0.9989443811622859	-0.5051233547782046	0.0	1.1029677739519832	-0.6037822926412073	0.0	0.917255853616147	-0.355790057686855	0.0	0.990562480742242	-0.4924557821706003	0.0	1.096535261292436	-0.5821980209482832	0.0
15	0.5048076923076923	0.8780841255061911	-0.6001593020153039	0.0	0.881972132520476	-0.5974706559215546	0.0	0.9189342376643052	-0.8011162348374323	0.0	0.8778447761019992	-0.9998472355482092	0.0	0.96726063294712	-1.0301544239691351	0.0	0.9495996785628824	-1.0384043505423826	0.0	0.8543655403563628	-1.0279659830049488	0.0	0.8824208331601197	-0.5965954423681965	0.0	0.9227829642779846	-0.7941873570543339	0.0	0.8931673409064037	-0.977463880552688	0.0	0.9802706000392606	-0.998335733744752	0.0	0.9683789854967354	-0.9928316066812799	0.0	0.8660791691613529	-0.9979515177223116	0.0	0.95109634590308	-0.32857184528770694	0.0	1.0403512506353871	-0.221680759021327	0.0	1.0277501948254486	-0.3132189892152369	0.0	0.9348006882564094	-0.362735854609338	0.0	0.9914334576764281	-0.5086870125582355	0.0	1.0852434519734335	-0.6144499787199398	0.0	0.9177491736844268	-0.3565588513927198	0.0	0.98149974986562	-0.49600945515776995	0.0	1.076997029299632	-0.5922564599488184	0.0
16	0.5384615384615384	0.879918604726125	-0.6021387309647512	0.0	0.8840397699658115	-0.5991074403450352	0.0	0.9229814235351818	-0.8015228821894608	0.0	0.8779802375912211	-1.0015599860939226	0.0	0.9669756735459734	-1.0319978921781932	0.0	0.9481923147688583	-1.0405193414851306	0.0	0.8539382251663847	-1.0291892504912936	0.0	0.8830601908668881	-0.5985616769247032	0.0	0.9280829930710722	-0.7950940644261701	0.0	0.8944376590309434	-0.9791933292283171	0.0	0.9817835620585332	-1.0028679181035756	0.0	0.9705072837062036	-0.9951484997998638	0.0	0.8681861816396893	-1.0024486938174215	0.0	0.951803266968839	-0.32941582815957254	0.0	1.0396664671695868	-0.22285359471234106	0.0	1.0277350039960789	-0.3136265372027085	0.0	0.9353972102976024	-0.3639910050987347	0.0	0.9811446238713591	-0.5124949782990608	0.0	1.0608556978681964	-0.6263262038338647	0.0	0.9193691496816567	-0.35750649054451245	0.0	0.969831885949228	-0.4997399429968591	0.0	1.0510624224273082	-0.6033078201689683	0.0
17	0.5721153846153846	0.8818332918006848	-0.6045556296708666	0.0	0.8860689972924257	-0.601148829086907	0.0	0.9265329932264115	-0.8015704394796211	0.0	0.8781343894085125	-1.0026349470376512	0.0	0.9670352337345536	-1.033404308969189	0.0	0.9472618313885207	-1.042092250062492	0.0	0.8535731788687037	-1.0298320367594025	0.0	0.883893413140837	-0.6008223633757419	0.0	0.9330054349520402	-0.7957082997515286	0.0	0.8957221044592326	-0.9804964662275439	0.0	0.9835651251674045	-1.007194105085936	0.0	0.9725525525069701	-0.9972152268959318	0.0	0.8700478779598025	-1.00639691284681	0.0	0.9530668508290281	-0.3303351544433981	0.0	1.0402155620748048	-0.2245119129476973	0.0	1.0285505076301051	-0.314670258728694	0.0	0.9360805914042776	-0.3652499987265797	0.0	0.9680547439526277	-0.5161370962717613	0.0	1.0302850270062873	-0.6378416764151867	0.0	0.9216717718628376	-0.35852199956356984	0.0	0.9557136813989738	-0.5032246546007981	0.0	1.0200530559801038	-0.6137406588050196	0.0
18	0.6057692307692307	0.8836951075298288	-0.6071644093833444	0.0	0.8881861551976795	-0.603342627586431	0.0	0.9292621669303744	-0.8012032015870291	0.0	0.8784636179273623	-1.0028631199596774	0.0	0.9673184898212892	-1.0340658684580861	0.0	0.9468873715405838	-1.0427943445563967	0.0	0.8534034461902891	-1.0296455281359962	0.0	0.8851447949881361	-0.6029989346216217	0.0	0.9367005650111617	-0.7958888026610448	0.0	0.8967941141120387	-0.9810934920721908	0.0	0.985087686127404	-1.0105074661067666	0.0	0.9742200974851097	-0.9986602222312224	0.0	0.8714408163911562	-1.0088733247230917	0.0	0.95503438615695	-0.3313596045558271	0.0	1.0423968122834908	-0.22665977504854815	0.0	1.0304915692605219	-0.3163166402844785	0.0	0.9369676069628512	-0.3662597446984099	0.0	0.9523734510999203	-0.5186209377994185	0.0	0.9944570294785849	-0.646747702198361	0.0	0.9242876458053118	-0.35953232448114686	0.0	0.9394408161505095	-0.5057251565953561	0.0	0.9852879910024563	-0.6215506876717716	0.0
19	0.6394230769230769	0.8854514006050469	-0.6094872198491242	0.0	0.8903829589274526	-0.6051960578832851	0.0	0.9310169761609972	-0.8003810781737397	0.0	0.8789538321488098	-1.002313762340816	0.0	0.9675316755710621	-1.0338827554789742	0.0	0.946819241038347	-1.0425287329284563	0.0	0.853470478872185	-1.0286105765787095	0.0	0.8872648065596463	-0.6046639180222235	0.0	0.9388659856630219	-0.7955444249053056	0.0	0.8975506722088781	-0.9808966134642026	0.0	0.9859593343270726	-1.012372302162441	0.0	0.9754197952151767	-0.9993708844067659	0.0	0.8725667976181197	-1.0094831212109159	0.0	0.9579650380457763	-0.332491329609405	0.0	1.0464092823564835	-0.22923871813015642	0.0	1.0338464103261267	-0.3183588876388145	0.0	0.9382349034312363	-0.3667272270646044	0.0	0.9346785655181785	-0.5184727107208205	0.0	0.9547192378795353	-0.6504503093312329	0.0	0.9271660821806299	-0.36045435694788913	0.0	0.9214293148984534	-0.5062392148928875	0.0	0.9477482978454521	-0.6246407278324236	0.0
20	0.673076923076923	0.8870249058423775	-0.61090071747604	0.0	0.8923148163059418	-0.6060714352964716	0.0	0.9316423181655714	-0.7991291302268043	0.0	0.8794261120387926	-1.0013994392991425	0.0	0.9674374811951194	-1.033028324820927	0.0	0.9467259142244225	-1.0415254899722395	0.0	0.8537003399481646	-1.0271272625684886	0.0	0.8901621027169259	-0.6053890536551768	0.0	0.939608357570977	-0.7946647861503637	0.0	0.8980603341459535	-0.9801353188528203	0.0	0.9860862184497452	-1.012807394443474	0.0	0.9761806085537323	-0.999500800452017	0.0	0.873723012472439	-1.0085200663910878	0.0	0.9621243873427631	-0.33376227592789437	0.0	1.052282260284851	-0.2322048006621246	0.0	1.0387671421884088	-0.32057899116639105	0.0	0.9401832314358545	-0.3664638341184649	0.0	0.9160273130843509	-0.5144043741419466	0.0	0.9129136741517592	-0.6466872082142407	0.0	0.9305701807774024	-0.3612133074186643	0.0	0.9027251367142809	-0.5040203757746954	0.0	0.9087040527515724	-0.6215541729635498	0.0
